<svg width="224" height="255" viewBox="0 0 224 255" xmlns="http://www.w3.org/2000/svg"><title>BZContact App Icon</title><g fill="none" fill-rule="evenodd"><path d="M.024 254.762h223.714V0H.024v254.762zM98.608 97.111h103.659v29.645H98.607V97.11zm0-22.82h103.659v5.465H98.607v-5.464zm0-10h103.659v5.465H98.607v-5.464zM80.37 177.038H21.495v-29.645h58.887v29.645h-.012zm0-50.281H21.495V97.11h58.887v29.645h-.012zm18.238 20.647h103.659v29.645H98.607v-29.645zm103.67 85.206h-63.972v-20.936h63.972v20.936z" fill="#801F2C"/><g transform="translate(22 17)" fill="#FFF"><path d="M28.335 29.663H6.483c-.272 0-.533.106-.725.296-.193.19-.3.449-.3.718 0 8.755 7.205 15.879 16.062 15.879H28.335a8.54 8.54 0 0 0 6.042-2.474 8.342 8.342 0 0 0 2.502-5.973c0-4.657-3.832-8.446-8.544-8.446zM7.547 31.69H9.29c.296 4.61 2.59 8.691 6.033 11.406-4.336-2.123-7.409-6.4-7.777-11.406zm25.378 10.956a6.487 6.487 0 0 1-4.59 1.88h-3.023c-7.376-.004-13.437-5.673-13.965-12.836h16.988c3.58 0 6.492 2.88 6.492 6.418a6.337 6.337 0 0 1-1.902 4.538z"/><ellipse cx="29.048" cy="8.116" rx="1.415" ry="1.399"/><path d="M54.287 9.906H39.172a11.854 11.854 0 0 0-3.353-6.43c-4.688-4.634-12.315-4.634-17.002 0a11.802 11.802 0 0 0 0 16.806l5.614 5.55H1.087A1.02 1.02 0 0 0 .06 26.845V31.9c0 10.695 8.802 19.395 19.62 19.395h.372a2.992 2.992 0 0 0 1.91 2.167v8.524c0 .56.46 1.014 1.026 1.014h4.391c.145 0 .283-.03.408-.083.125.053.262.083.407.083h4.392a1.02 1.02 0 0 0 1.026-1.014c0-.56-.46-1.015-1.026-1.015H29.22v-7.513a2.992 2.992 0 0 0 1.898-2.162h4.429c7.102 0 12.88-5.712 12.88-12.732 0-2.607-.785-5.087-2.246-7.187l.066.002c6.998 0 12.692-5.628 12.692-12.546v-4.328c0-2.536-2.087-4.6-4.653-4.6zm0 2.029c1.07 0 1.99.641 2.388 1.555H26.61a2.604 2.604 0 0 1 2.388-1.555h25.29zm-31.3 39.677a.953.953 0 0 1-.709-.316h1.42a.953.953 0 0 1-.71.316zm1.027 9.36v-7.51a3.012 3.012 0 0 0 1.57-1.301 3.01 3.01 0 0 0 1.584 1.305v7.505h-3.154zm4.168-9.36a.953.953 0 0 1-.71-.316h1.419a.953.953 0 0 1-.71.316zm18.192-13.048c0 5.901-4.856 10.702-10.827 10.702H19.68c-9.687 0-17.567-7.79-17.567-17.366v-4.04h24.795c.415 0 .79-.247.948-.626.16-.38.072-.815-.222-1.106l-7.366-7.28a9.787 9.787 0 0 1 0-13.938c3.888-3.843 10.212-3.843 14.1 0a9.836 9.836 0 0 1 2.716 4.996h-8.086c-2.565 0-4.652 2.063-4.652 4.599h.002c0 .263.102.523.298.717l12.627 12.482a12.65 12.65 0 0 0 5.949 3.317c2.032 2.02 3.152 4.691 3.152 7.543zm-.127-9.214a10.629 10.629 0 0 1-7.522-3.08L27.849 15.518h29.038v3.314c0 5.799-4.773 10.517-10.64 10.517z"/></g></g></svg>